<?xml version="1.0" standalone="no"?>
<!DOCTYPE svg PUBLIC "-//W3C//DTD SVG 20010904//EN"
 "http://www.w3.org/TR/2001/REC-SVG-20010904/DTD/svg10.dtd">
<svg version="1.0"
  xmlns="http://www.w3.org/2000/svg" width="1127.000000pt" height="407.000000pt" viewBox="0 0 1127.000000 407.000000" preserveAspectRatio="xMidYMid meet">
  <metadata>
Created by potrace 1.16, written by Peter Selinger 2001-2019
  </metadata>
  <g transform="translate(0.000000,407.000000) scale(0.100000,-0.100000)" fill="red" stroke="yellow">
    <path d="M5335 3913 c-628 -21 -1446 -101 -1940 -189 -601 -108 -1100 -231
-1506 -370 -895 -307 -1469 -682 -1665 -1089 -56 -116 -74 -189 -75 -300 0
-169 54 -318 173 -473 59 -76 241 -247 336 -315 725 -519 2095 -888 3727
-1001 676 -47 1509 -46 2170 4 1969 149 3566 633 4246 1288 593 569 366 1182
-616 1667 -897 443 -2218 714 -3780 775 -221 9 -852 11 -1070 3z m294 -504
c153 -15 192 -31 226 -99 96 -190 122 -724 49 -1020 l-26 -105 47 -309 c25
-170 53 -325 60 -344 8 -18 24 -36 35 -39 19 -5 20 -13 20 -177 l0 -172 -72 7
c-40 4 -85 8 -99 8 l-26 1 -54 440 c-29 243 -56 444 -59 449 -3 4 -22 11 -43
15 l-37 7 2 -268 c3 -267 3 -268 26 -278 22 -10 22 -13 22 -179 l0 -169 -77 7
c-42 3 -102 6 -135 6 l-58 0 0 169 c0 162 1 170 21 176 11 4 24 18 30 32 5 14
9 317 9 741 0 633 -2 720 -16 740 -8 12 -22 22 -30 22 -12 0 -14 29 -14 175
l0 175 42 0 c23 0 94 -5 157 -11z m-321 -331 l-3 -323 -52 -3 -53 -3 0 83 c0
127 -19 148 -117 133 l-43 -6 2 -222 3 -222 60 3 c33 1 75 5 93 8 l32 5 0
-219 0 -219 -87 -7 c-48 -3 -91 -10 -95 -14 -5 -5 -7 -118 -6 -253 l3 -244 65
3 c91 3 94 9 98 146 l4 114 36 6 c79 13 72 45 72 -329 l0 -334 -32 -5 c-18 -3
-112 -13 -208 -21 -96 -8 -194 -18 -217 -21 l-43 -5 0 171 c0 166 1 172 21
177 11 3 25 17 30 30 10 27 13 1433 2 1471 -3 13 -16 28 -29 33 -24 8 -24 9
-24 179 l0 170 28 1 c15 0 106 9 202 19 96 9 194 18 218 19 l42 1 -2 -322z
m892 277 c41 -3 94 -8 118 -11 l42 -6 0 -168 c0 -159 -1 -168 -20 -173 -11 -3
-24 -17 -30 -32 -6 -17 -10 -237 -10 -598 0 -672 9 -787 65 -843 51 -51 106
-16 133 83 13 49 16 159 19 678 5 648 3 687 -37 700 -19 6 -20 16 -20 177 l0
171 53 -6 c28 -3 87 -9 130 -13 l77 -7 0 -169 c0 -168 0 -169 -24 -177 -13 -5
-26 -17 -30 -26 -3 -9 -6 -265 -6 -568 0 -579 -9 -834 -35 -993 -36 -225 -104
-334 -208 -334 -96 0 -172 89 -217 252 -49 178 -52 240 -59 989 -6 736 -6 739
-47 739 -11 0 -14 33 -14 175 l0 175 23 -4 c12 -3 56 -8 97 -11z m-1621 -43
c104 -52 161 -324 147 -702 -6 -191 -17 -288 -42 -389 -35 -141 -86 -216 -153
-226 -20 -3 -51 -8 -68 -11 l-33 -5 0 -251 c0 -220 2 -254 17 -270 9 -10 24
-18 35 -18 17 0 18 -11 18 -170 0 -155 -2 -170 -17 -171 -10 0 -75 -6 -145
-13 l-128 -12 0 173 c0 144 2 173 14 173 8 0 22 10 30 22 14 20 16 108 16 748
0 640 -2 728 -16 748 -8 12 -22 22 -30 22 -12 0 -14 29 -14 170 0 129 3 170
13 171 6 0 66 6 132 13 166 19 185 18 224 -2z m2771 -3 c25 -11 66 -43 93 -71
l47 -50 0 -304 0 -304 -29 0 c-16 0 -43 3 -60 6 l-31 7 0 111 c0 185 -25 276
-77 284 -48 7 -73 -63 -73 -208 -1 -132 16 -186 125 -405 134 -270 162 -378
172 -660 12 -354 -54 -677 -150 -736 -72 -43 -190 -9 -267 78 l-40 46 0 337 0
337 53 -4 c28 -3 57 -6 63 -8 8 -2 13 -58 17 -167 5 -174 15 -226 49 -258 27
-25 43 -25 67 -1 32 32 45 97 45 226 0 149 -10 184 -114 404 -116 245 -149
359 -171 587 -18 195 5 478 51 609 51 148 123 193 230 144z m-3626 1 c14 -5
46 -28 71 -51 l45 -42 0 -302 0 -302 -31 -7 c-17 -3 -44 -6 -59 -6 l-28 0 -4
158 c-3 122 -7 164 -20 188 -20 37 -49 47 -77 28 -34 -24 -46 -80 -46 -214 1
-152 10 -180 119 -370 86 -151 126 -247 152 -370 27 -120 27 -570 1 -707 -36
-190 -90 -309 -157 -345 -67 -35 -163 -17 -237 46 l-33 28 0 344 0 344 29 0
c16 0 42 3 58 6 l30 6 6 -154 c6 -171 18 -230 53 -257 66 -52 114 47 114 233
0 135 -12 176 -114 381 -155 311 -171 379 -171 730 1 216 4 263 22 345 37 168
73 242 137 281 34 21 99 25 140 9z m-434 -419 c0 -357 6 -331 -76 -331 l-44 0
0 91 c0 117 -7 129 -70 129 -85 0 -80 16 -80 -236 l0 -225 53 6 c28 3 71 8 95
11 l42 5 0 -214 c0 -237 3 -227 -64 -227 -18 0 -54 -3 -80 -6 l-46 -7 0 -254
0 -255 63 7 c90 10 97 21 97 155 l0 107 31 7 c17 3 44 6 60 6 l29 0 0 -334 0
-335 -42 -5 c-24 -3 -119 -13 -213 -21 -93 -8 -189 -18 -212 -21 l-43 -5 0
170 0 170 28 13 27 13 3 748 2 748 -30 17 -30 17 0 168 0 167 28 1 c15 0 106
9 202 19 96 9 196 18 223 19 l47 1 0 -319z m-829 286 c88 -59 155 -248 195
-550 21 -166 30 -670 15 -897 -38 -572 -155 -900 -321 -900 -206 0 -324 480
-307 1255 4 149 11 315 17 370 42 398 137 671 251 728 49 24 109 22 150 -6z
m5834 8 c19 -4 24 -45 99 -822 107 -1112 103 -1083 142 -1106 11 -6 14 -46 14
-178 l0 -170 -67 6 c-38 4 -99 10 -138 13 l-70 7 -3 172 c-2 167 -2 173 18
173 13 0 22 9 26 26 8 32 -3 215 -13 225 -5 5 -49 11 -99 15 l-92 7 -7 -107
c-7 -100 -6 -110 14 -136 19 -27 21 -42 21 -196 l0 -167 -72 7 c-40 4 -94 9
-120 13 l-48 6 0 164 c0 162 0 164 25 186 19 17 27 38 35 92 11 74 180 1737
180 1768 0 17 7 18 68 12 37 -3 76 -8 87 -10z m1039 -59 c44 -19 99 -68 135
-123 l31 -46 0 -365 c0 -328 -2 -364 -16 -358 -9 3 -38 6 -65 6 l-49 0 0 144
c0 245 -27 366 -86 380 -112 28 -164 -204 -164 -730 0 -368 23 -552 83 -674
37 -74 83 -108 130 -96 36 9 103 70 138 126 l29 45 0 -229 0 -229 -35 -62
c-83 -150 -192 -185 -290 -94 -98 91 -176 367 -204 724 -61 772 36 1455 223
1575 36 23 93 26 140 6z m-7394 -206 c0 -170 0 -171 -24 -179 -13 -5 -27 -18
-32 -28 -4 -10 -11 -358 -14 -773 -6 -635 -10 -771 -24 -855 -35 -214 -87
-307 -176 -315 -53 -5 -70 1 -119 43 l-51 42 0 291 c0 322 -4 304 65 304 l32
0 5 -109 c6 -147 41 -202 85 -134 17 25 18 78 21 750 2 498 -1 729 -8 743 -6
12 -21 20 -35 20 l-25 0 0 170 c0 129 3 170 13 171 6 0 66 6 132 13 66 8 128
14 138 15 16 1 17 -13 17 -169z m5809 -1396 c11 -14 27 -59 37 -101 23 -103
16 -355 -12 -427 -25 -64 -48 -79 -75 -48 -33 41 -51 121 -56 253 -6 137 6
236 37 307 22 48 40 53 69 16z m1015 -96 c65 -102 70 -440 9 -561 -20 -40 -53
-33 -76 15 -59 121 -58 434 2 546 15 28 47 28 65 0z"/>
    <path d="M5654 3006 c-2 -6 -3 -133 -2 -281 l3 -270 34 -3 c40 -4 74 24 93 77
21 58 17 333 -5 398 -10 28 -24 57 -32 63 -23 19 -86 30 -91 16z"/>
    <path d="M4437 2933 c-4 -3 -7 -132 -7 -285 l0 -278 25 0 c47 0 82 27 102 77
15 40 18 77 18 213 0 223 -21 280 -103 280 -16 0 -32 -3 -35 -7z"/>
    <path d="M2322 2757 c-85 -90 -117 -341 -109 -853 5 -348 16 -457 58 -568 42
-115 127 -116 174 -3 46 110 65 314 65 703 0 455 -27 651 -101 725 -25 25 -61
24 -87 -4z"/>
    <path d="M8207 2603 c-11 -17 -68 -646 -60 -653 12 -11 132 -18 135 -8 5 15
-57 656 -64 663 -3 4 -8 2 -11 -2z"/>
  </g>
</svg>
